<?xml version="1.0" encoding="UTF-8"?>
<svg id="Layer_1" xmlns="http://www.w3.org/2000/svg" version="1.1" viewBox="0 0 1800 1800">
  <!-- Generator: Adobe Illustrator 29.0.1, SVG Export Plug-In . SVG Version: 2.1.0 Build 192)  -->
  <defs>
    <style>
      .st0 {
        font-family: YesevaOne, 'Yeseva One';
        font-size: 132.17px;
      }

      .st0, .st1 {
        fill: #bda071;
      }

      .st1 {
        display: none;
        fill-rule: evenodd;
      }
    </style>
  </defs>
  <path class="st1" d="M628.37,1226.31v121.69h71.88v-121.69h471.38v-314.73l-271.63-283.53-271.63,283.53v314.73h0ZM700.25,940.45v213.98h399.51v-213.98l-199.75-208.5-199.75,208.5h0ZM506.68,862.55l308.04-321.54,49.64,51.81-357.68,373.35v-103.62h0ZM578.56,965.48v382.52s-71.88,0-71.88,0v-307.62l71.88-74.89h0ZM850.37,503.81l49.63-51.81,276.03,288.12v103.62l-325.66-339.93h0ZM745.23,1276.12h548.09v71.88h-548.09s0-71.88,0-71.88h0ZM1221.44,1230.71v-443.18l71.88,75.02v368.16h-71.88Z"/>
  <text class="st0" transform="translate(269.6 964.56)"><tspan x="0" y="0">HORIZON ESTATES</tspan></text>
</svg>